<svg xmlns="http://www.w3.org/2000/svg" viewBox="0 0 1105.9 158.58"><defs><style>.cls-1{fill:#fff;}</style></defs><g id="Layer_2" data-name="Layer 2"><g id="Layer_1-2" data-name="Layer 1"><path class="cls-1" d="M66.5,77.4A4.87,4.87,0,0,0,68.17,68L6.54,45.44A4.87,4.87,0,1,0,3.2,54.58L64.83,77.1a5,5,0,0,0,1.67.3"/><path class="cls-1" d="M75.68,66.84a4.82,4.82,0,0,0,2.44-.66,4.88,4.88,0,0,0,1.77-6.65L46.82,2.43A4.86,4.86,0,0,0,38.4,7.3L71.47,64.41a4.85,4.85,0,0,0,4.21,2.43"/><path class="cls-1" d="M89.64,63.36a3.69,3.69,0,0,0,3.63-3L99.4,27.7a3.7,3.7,0,1,0-7.27-1.36L86,59a3.69,3.69,0,0,0,3,4.31,3.21,3.21,0,0,0,.68.07"/><path class="cls-1" d="M101.86,71.56a4.82,4.82,0,0,0,3-1.08l51.44-41.65a4.87,4.87,0,0,0-6.12-7.57L98.79,62.92a4.86,4.86,0,0,0,3.07,8.64"/><path class="cls-1" d="M106.59,83.31h33a3.7,3.7,0,1,0,0-7.39h-33a3.7,3.7,0,1,0,0,7.39"/><path class="cls-1" d="M152.45,140.07a4.86,4.86,0,0,0,3.12-8.6L104.77,89a4.87,4.87,0,0,0-6.24,7.47l50.8,42.43a4.85,4.85,0,0,0,3.12,1.13"/><path class="cls-1" d="M95,136.05a4.46,4.46,0,0,0,.63-.05,3.71,3.71,0,0,0,3-4.27L93,99a3.7,3.7,0,1,0-7.29,1.25L91.34,133A3.7,3.7,0,0,0,95,136.05"/><path class="cls-1" d="M41.5,158.58a4.89,4.89,0,0,0,4.18-2.37l33.91-56.6a4.87,4.87,0,0,0-8.35-5l-33.91,56.6a4.87,4.87,0,0,0,4.17,7.37"/><path class="cls-1" d="M35.64,100.81a3.77,3.77,0,0,0,1.22-.21L67.61,89.9a3.7,3.7,0,0,0-2.43-7L34.42,93.62a3.7,3.7,0,0,0,1.22,7.19"/><path class="cls-1" d="M243.3,64.53H227.14c-1-8.24-7-13.2-16-13.2-11.79,0-19,9.13-19,24s7.1,24,18.67,24c9.17,0,15.18-4.86,16.38-13.5h16.48c-1.53,16.78-13.86,26.41-32.86,26.41-21.83,0-35.26-14-35.26-36.93S189,38.43,211.09,38.43c19.21,0,31.44,10.72,32.21,26.1"/><path class="cls-1" d="M267.58,65.82a19.68,19.68,0,0,1,15.29-6.75c12.44,0,20.41,6.95,20.41,20.65v31H288V81.11c0-7.64-3.72-11.12-9.72-11.12-6.33,0-10.92,4.47-10.92,13.7v27H252.08V40h15.28v25.8Z"/><path class="cls-1" d="M358.74,78.63V96.89c0,6.35.55,10.42,1.53,13.8H346.51a26.58,26.58,0,0,1-.76-6.75h-.22c-4.15,5.36-10.37,7.94-18,7.94-11.79,0-18.89-6.55-18.89-15.29,0-8.24,5.46-13.79,21.51-16.08,4.15-.59,10.37-1.19,13.86-1.39V77.34c0-6.36-3.71-8.94-9.06-8.94-5.68,0-8.95,2.88-9.17,7.65H310.92c.55-9.63,8.19-17.37,24-17.37s23.8,6.75,23.8,19.95M344,87.56c-3.27.2-7.86.6-11.13,1.09-6.34,1-9,2.88-9,6.95,0,3.77,2.84,6.35,8.19,6.35,3.17,0,6.55-.89,8.74-2.88C343.46,96.69,344,94,344,89.45Z"/><path class="cls-1" d="M467,95.4h15.62c-2.19,9.23-11.8,16.88-26.53,16.88-17.47,0-27.63-11.12-27.63-27.2,0-14.89,10.16-26.4,27.52-26.4,12.77,0,22.16,6.55,25.65,16.77,1.2,3.48,1.75,7.35,1.75,12.9H443.48c.44,10.43,6,14.1,12.56,14.1,6.11,0,10.15-3,10.91-7M443.81,79.62H468c-1-7.64-6-11.12-12.11-11.12S445,72,443.81,79.62"/><path class="cls-1" d="M541.41,79.72v31H526.13V81.11c0-7.64-3.72-11.12-9.72-11.12-6.33,0-10.92,4.57-10.92,13.7v27H490.21V60.26h14.3v6.36h.22A20.38,20.38,0,0,1,521,59.07c12.44,0,20.41,6.95,20.41,20.65"/><path class="cls-1" d="M587.48,67h.22V60.26h14.41v47.25c0,15.29-10.37,22.43-26.31,22.43-15.28,0-23.69-6.15-24.56-16.08h15.28c.33,3.87,3.82,6.16,9.61,6.16,6.88,0,11.13-3.18,11.13-13v-4.47h-.21c-4.15,5.26-8.85,7.54-15.51,7.54-13.86,0-22.71-9.92-22.71-25.61s9-25.6,22.93-25.6c6.77,0,11.47,2.38,15.72,8.13M564.77,84.48c0,8.74,4.37,14.2,11.14,14.2,7.21,0,11.79-5.66,11.79-14.2s-4.58-14.19-11.79-14.19c-6.77,0-11.14,5.46-11.14,14.19"/><path class="cls-1" d="M647.53,95.4h15.61c-2.18,9.23-11.79,16.88-26.53,16.88-17.47,0-27.62-11.12-27.62-27.2,0-14.89,10.15-26.4,27.51-26.4,12.78,0,22.17,6.55,25.66,16.77,1.2,3.48,1.75,7.35,1.75,12.9H624.06c.43,10.43,6,14.1,12.55,14.1,6.12,0,10.16-3,10.92-7M624.38,79.62h24.24c-1-7.64-6-11.12-12.12-11.12S625.59,72,624.38,79.62"/><path class="cls-1" d="M391.11,102l.73-.26-1.51,8.91-.25.09a22.84,22.84,0,0,1-8.1,1.39c-7.08,0-11.26-3.36-11.77-9.46-.23-2.78.56-7.17,1.4-11.8.26-1.43.52-2.88.76-4.3l6.13-35.14c.14-.87.29-2.06,0-2.44-.07-.08-.22-.19-.69-.19h-5.61L373.65,40h9.05l1.84,0h10.28l-7.45,42.73c-.32,1.83-.66,3.65-1,5.41-.9,4.86-1.75,9.45-1.56,11.73.16,1.92,1.08,2.85,2.81,2.85a9.08,9.08,0,0,0,3.47-.71"/><path class="cls-1" d="M420.67,102l.73-.26-1.51,8.91-.24.09a22.9,22.9,0,0,1-8.11,1.39c-7.08,0-11.26-3.36-11.77-9.46-.23-2.78.56-7.17,1.4-11.81.26-1.42.52-2.87.76-4.29l6.13-35.14c.14-.87.29-2.06,0-2.44-.08-.08-.22-.19-.7-.19h-5.61L403.21,40h9.05l1.84,0h10.28l-7.45,42.73c-.31,1.82-.65,3.65-1,5.4-.9,4.87-1.75,9.46-1.56,11.74.16,1.92,1.08,2.85,2.81,2.85a9.08,9.08,0,0,0,3.47-.71"/><path class="cls-1" d="M789.94,40l-1.11,7.38h7.39c.51,0,.66.1.74.18s.23.87.08,1.87l-6.9,38.65c-2,11.13-6.87,15.87-16.34,15.87-7.17,0-12-1.58-14.67-4.84s-3.47-8.51-2.11-15.8l5.91-33.72c.31-2.21.75-2.21,1.47-2.21h6.72L772.23,40h-26.6l-1.23,7.38H751c.52,0,.66.1.74.18s.23.87.08,1.87c0,.25-4.68,24.76-5.7,31.52a52.44,52.44,0,0,0-.84,12.2h0C746.4,105.32,756.07,112,772.47,112c15.06,0,22.95-6.86,25.59-22.24l7-40.11c.42-2.23.85-2.23,1.58-2.23h6.5L814.35,40Z"/><path class="cls-1" d="M738,57.61,740.84,40H687.23L686,47.42h6.09c.51,0,.66.1.74.18s.22.87.08,1.87l-9.23,51.66c-.42,2.23-.86,2.23-1.58,2.23h-5.73l-1.27,7.38h56L734,93.18h-7.87l-2,7.06c-.64,2-1.55,3.12-4.56,3.12h-25l4.38-25h12.92a2,2,0,0,1,1.58.52,3.17,3.17,0,0,1,.28,2.49l-.81,5.08h7.39l3.85-22.82h-7.49l-.93,4.71c-.41,2.33-1,3.17-3.27,3.17H700.07l4.25-24.13h22.49c3.08,0,4,.68,4.15,2.95l-.44,7.24Z"/><path class="cls-1" d="M858.73,76.19l-1.13,7H819.09l1.12-7Z"/><path class="cls-1" d="M896.59,39.64q5.26-.37,8-.37,14.46,0,21.09,7.65T932.29,68a52.29,52.29,0,0,1-4.46,22,35,35,0,0,1-13,15.22q-8.5,5.51-20.24,5.31c-.38,0-1.1,0-2.16-.14s-1.85-.17-2.35-.23c-2.76-.26-5.89-.38-9.4-.38H868l.38-3.85,7-1.13,7.71-59.65-6.39-1,.47-4.13h13Q892.27,40,896.59,39.64Zm-5.45,65.67a43.83,43.83,0,0,0,5,.38,21.05,21.05,0,0,0,14.14-5.59,32.22,32.22,0,0,0,8.46-13.58,54.5,54.5,0,0,0,2.77-17.38q0-13.33-4.37-19.16t-14.33-5.83a60.18,60.18,0,0,0-9.49.94l-7.61,59.37Q888,104.94,891.14,105.31Z"/><path class="cls-1" d="M985.84,43.12a23.53,23.53,0,0,1,8,10.85,42.83,42.83,0,0,1,2.58,15.27,52.49,52.49,0,0,1-4,20.9,35.85,35.85,0,0,1-11.55,15,28.76,28.76,0,0,1-17.66,5.59,22.67,22.67,0,0,1-13.48-3.9,23.15,23.15,0,0,1-8.18-10.71,42.06,42.06,0,0,1-2.68-15.45A52.09,52.09,0,0,1,943,59.65a35.86,35.86,0,0,1,11.74-15,29.11,29.11,0,0,1,17.57-5.54A22.12,22.12,0,0,1,985.84,43.12ZM960,48.76a31.23,31.23,0,0,0-7.61,12.87,56.89,56.89,0,0,0-2.72,18q0,11.57,3.71,18.89t10.94,7.32a15.62,15.62,0,0,0,11.14-4.65,30.35,30.35,0,0,0,7.47-12.82A60.09,60.09,0,0,0,985.56,70q0-12-3.67-19t-10.8-6.95A15.55,15.55,0,0,0,960,48.76Z"/><path class="cls-1" d="M1037.69,44.15a18,18,0,0,0-13,5.22,32.46,32.46,0,0,0-8,13.24,51.4,51.4,0,0,0-2.67,16.3q0,11.46,3.94,18.79A12.91,12.91,0,0,0,1030,105a26.3,26.3,0,0,0,7-1,11.22,11.22,0,0,0,5.45-3.05,100,100,0,0,0,3.19-9.87h6.11l-2,14.38a46.35,46.35,0,0,1-21.51,5.07q-8.84,0-14.56-4.32A24.54,24.54,0,0,1,1005.42,95a42.43,42.43,0,0,1-2.58-15,46.12,46.12,0,0,1,4.79-21.47,35.26,35.26,0,0,1,13.06-14.28,34.75,34.75,0,0,1,18.41-5,58.86,58.86,0,0,1,8.6.51,51.72,51.72,0,0,1,5.26,1c1.28.34,2.08.55,2.4.61l1.78.56-2.82,17.19h-6.86L1046.71,46A19.27,19.27,0,0,0,1037.69,44.15Z"/><path class="cls-1" d="M1087.86,44a15.09,15.09,0,0,0-9.06,2.68,8.78,8.78,0,0,0-3.72,7.56,12.4,12.4,0,0,0,3.29,8.79,49.1,49.1,0,0,0,10,7.65,76.06,76.06,0,0,1,7.66,5.45,22.91,22.91,0,0,1,5.12,6.06,15.66,15.66,0,0,1,2.06,8,19.17,19.17,0,0,1-3.05,10.71,20.23,20.23,0,0,1-8.69,7.33,30.63,30.63,0,0,1-13.06,2.63,50.76,50.76,0,0,1-12.07-1.41q-5.77-1.41-7.66-2.82l2.17-13.43h6.1l.56,9.86a14.17,14.17,0,0,0,4.75,2.12,23.57,23.57,0,0,0,6.15.8,17.53,17.53,0,0,0,10.67-3.15,10.31,10.31,0,0,0,4.27-8.78,11.66,11.66,0,0,0-3-8.18,42.88,42.88,0,0,0-9.11-7,76.48,76.48,0,0,1-8-5.78,24.89,24.89,0,0,1-5.5-6.53,16.37,16.37,0,0,1-2.21-8.45A17,17,0,0,1,1068.56,48a19.43,19.43,0,0,1,8.36-6.62,29.1,29.1,0,0,1,11.69-2.3,43.3,43.3,0,0,1,10.66,1.13,22.2,22.2,0,0,1,6.63,2.63l-2.16,12.59h-5.55l-.84-9Q1094,44,1087.86,44Z"/></g></g></svg>