<svg xmlns="http://www.w3.org/2000/svg" viewBox="0 0 911.7 158.58"><defs><style>.cls-1{fill:#fff;}</style></defs><g id="Layer_2" data-name="Layer 2"><g id="Layer_1-2" data-name="Layer 1"><path class="cls-1" d="M66.5,77.4A4.87,4.87,0,0,0,68.17,68L6.54,45.44A4.87,4.87,0,1,0,3.2,54.58L64.83,77.1a5,5,0,0,0,1.67.3"/><path class="cls-1" d="M75.68,66.84a4.82,4.82,0,0,0,2.44-.66,4.88,4.88,0,0,0,1.77-6.65L46.82,2.43A4.86,4.86,0,0,0,38.4,7.3L71.47,64.41a4.85,4.85,0,0,0,4.21,2.43"/><path class="cls-1" d="M89.64,63.36a3.69,3.69,0,0,0,3.63-3L99.4,27.7a3.7,3.7,0,1,0-7.27-1.36L86,59a3.69,3.69,0,0,0,3,4.31,3.21,3.21,0,0,0,.68.07"/><path class="cls-1" d="M101.86,71.56a4.82,4.82,0,0,0,3-1.08l51.44-41.65a4.87,4.87,0,0,0-6.12-7.57L98.79,62.92a4.86,4.86,0,0,0,3.07,8.64"/><path class="cls-1" d="M106.59,83.31h33a3.7,3.7,0,1,0,0-7.39h-33a3.7,3.7,0,1,0,0,7.39"/><path class="cls-1" d="M152.45,140.07a4.86,4.86,0,0,0,3.12-8.6L104.77,89a4.87,4.87,0,0,0-6.24,7.47l50.8,42.43a4.85,4.85,0,0,0,3.12,1.13"/><path class="cls-1" d="M95,136.05a4.46,4.46,0,0,0,.63-.05,3.71,3.71,0,0,0,3-4.27L93,99a3.7,3.7,0,1,0-7.29,1.25L91.34,133A3.7,3.7,0,0,0,95,136.05"/><path class="cls-1" d="M41.5,158.58a4.89,4.89,0,0,0,4.18-2.37l33.91-56.6a4.87,4.87,0,0,0-8.35-5l-33.91,56.6a4.87,4.87,0,0,0,4.17,7.37"/><path class="cls-1" d="M35.64,100.81a3.77,3.77,0,0,0,1.22-.21L67.61,89.9a3.7,3.7,0,0,0-2.43-7L34.42,93.62a3.7,3.7,0,0,0,1.22,7.19"/><path class="cls-1" d="M243.3,64.53H227.14c-1-8.24-7-13.2-16-13.2-11.79,0-19,9.13-19,24s7.1,24,18.67,24c9.17,0,15.18-4.86,16.38-13.5h16.48c-1.53,16.78-13.86,26.41-32.86,26.41-21.83,0-35.26-14-35.26-36.93S189,38.43,211.09,38.43c19.21,0,31.44,10.72,32.21,26.1"/><path class="cls-1" d="M267.58,65.82a19.68,19.68,0,0,1,15.29-6.75c12.44,0,20.41,6.95,20.41,20.65v31H288V81.11c0-7.64-3.72-11.12-9.72-11.12-6.33,0-10.92,4.47-10.92,13.7v27H252.08V40h15.28v25.8Z"/><path class="cls-1" d="M358.74,78.63V96.89c0,6.35.55,10.42,1.53,13.8H346.51a26.58,26.58,0,0,1-.76-6.75h-.22c-4.15,5.36-10.37,7.94-18,7.94-11.79,0-18.89-6.55-18.89-15.29,0-8.24,5.46-13.79,21.51-16.08,4.15-.59,10.37-1.19,13.86-1.39V77.34c0-6.36-3.71-8.94-9.06-8.94-5.68,0-8.95,2.88-9.17,7.65H310.92c.55-9.63,8.19-17.37,24-17.37s23.8,6.75,23.8,19.95M344,87.56c-3.27.2-7.86.6-11.13,1.09-6.34,1-9,2.88-9,6.95,0,3.77,2.84,6.35,8.19,6.35,3.17,0,6.55-.89,8.74-2.88C343.46,96.69,344,94,344,89.45Z"/><path class="cls-1" d="M467,95.4h15.62c-2.19,9.23-11.8,16.88-26.53,16.88-17.47,0-27.63-11.12-27.63-27.2,0-14.89,10.16-26.4,27.52-26.4,12.77,0,22.16,6.55,25.65,16.77,1.2,3.48,1.75,7.35,1.75,12.9H443.48c.44,10.43,6,14.1,12.56,14.1,6.11,0,10.15-3,10.91-7M443.81,79.62H468c-1-7.64-6-11.12-12.11-11.12S445,72,443.81,79.62"/><path class="cls-1" d="M541.41,79.72v31H526.13V81.11c0-7.64-3.72-11.12-9.72-11.12-6.33,0-10.92,4.57-10.92,13.7v27H490.21V60.26h14.3v6.36h.22A20.38,20.38,0,0,1,521,59.07c12.44,0,20.41,6.95,20.41,20.65"/><path class="cls-1" d="M587.48,67h.22V60.26h14.41v47.25c0,15.29-10.37,22.43-26.31,22.43-15.28,0-23.69-6.15-24.56-16.08h15.28c.33,3.87,3.82,6.16,9.61,6.16,6.88,0,11.13-3.18,11.13-13v-4.47h-.21c-4.15,5.26-8.85,7.54-15.51,7.54-13.86,0-22.71-9.92-22.71-25.61s9-25.6,22.93-25.6c6.77,0,11.47,2.38,15.72,8.13M564.77,84.48c0,8.74,4.37,14.2,11.14,14.2,7.21,0,11.79-5.66,11.79-14.2s-4.58-14.19-11.79-14.19c-6.77,0-11.14,5.46-11.14,14.19"/><path class="cls-1" d="M647.53,95.4h15.61c-2.18,9.23-11.79,16.88-26.53,16.88-17.47,0-27.62-11.12-27.62-27.2,0-14.89,10.15-26.4,27.51-26.4,12.78,0,22.17,6.55,25.66,16.77,1.2,3.48,1.75,7.35,1.75,12.9H624.06c.43,10.43,6,14.1,12.55,14.1,6.12,0,10.16-3,10.92-7M624.38,79.62h24.24c-1-7.64-6-11.12-12.12-11.12S625.59,72,624.38,79.62"/><path class="cls-1" d="M391.11,102l.73-.26-1.51,8.91-.25.09a22.84,22.84,0,0,1-8.1,1.39c-7.08,0-11.26-3.36-11.77-9.46-.23-2.78.56-7.17,1.4-11.8.26-1.43.52-2.88.76-4.3l6.13-35.14c.14-.87.29-2.06,0-2.44-.07-.08-.22-.19-.69-.19h-5.61L373.65,40h9.05l1.84,0h10.28l-7.45,42.73c-.32,1.83-.66,3.65-1,5.41-.9,4.86-1.75,9.45-1.56,11.73.16,1.92,1.08,2.85,2.81,2.85a9.08,9.08,0,0,0,3.47-.71"/><path class="cls-1" d="M420.67,102l.73-.26-1.51,8.91-.24.09a22.9,22.9,0,0,1-8.11,1.39c-7.08,0-11.26-3.36-11.77-9.46-.23-2.78.56-7.17,1.4-11.81.26-1.42.52-2.87.76-4.29l6.13-35.14c.14-.87.29-2.06,0-2.44-.08-.08-.22-.19-.7-.19h-5.61L403.21,40h9.05l1.84,0h10.28l-7.45,42.73c-.31,1.82-.65,3.65-1,5.4-.9,4.87-1.75,9.46-1.56,11.74.16,1.92,1.08,2.85,2.81,2.85a9.08,9.08,0,0,0,3.47-.71"/><path class="cls-1" d="M699.79,110.23c-.39,0-1.11,0-2.2-.14s-1.87-.17-2.37-.24c-2.7-.24-5.84-.37-9.33-.37H672.58l.48-4.91,7.06-1.13,7.58-58.69-6.38-1,.59-5.17h13.47c1.36,0,3.49-.13,6.34-.38,3.58-.25,6.2-.37,8-.37,9.77,0,17,2.64,21.52,7.85S738,58.06,738,67.11a53.06,53.06,0,0,1-4.51,22.27,34.64,34.64,0,0,1-32.95,20.86Zm-8.29-7.13c1.43.28,3.07.52,4.89.74a41.8,41.8,0,0,0,4.91.37,20.54,20.54,0,0,0,13.75-5.43,31.72,31.72,0,0,0,8.3-13.34,54,54,0,0,0,2.75-17.2c0-8.73-1.44-15.06-4.26-18.83s-7.45-5.6-13.87-5.6a57.36,57.36,0,0,0-9,.87Z"/><path class="cls-1" d="M701.77,38.74c3.5-.25,6.17-.38,8-.38q14.47,0,21.09,7.66t6.63,21.09a52.17,52.17,0,0,1-4.47,22,35.07,35.07,0,0,1-13,15.22q-8.5,5.49-20.24,5.31c-.38,0-1.1,0-2.17-.14l-2.34-.24q-4.14-.37-9.4-.38H673.21l.37-3.85,7-1.12,7.7-59.66-6.38-1,.47-4.14h13Q697.45,39.11,701.77,38.74Zm-5.45,65.66a41.46,41.46,0,0,0,5,.38,21,21,0,0,0,14.14-5.59,32.16,32.16,0,0,0,8.45-13.57,54.26,54.26,0,0,0,2.77-17.38q0-13.35-4.37-19.17T708,43.25a59,59,0,0,0-9.49.94l-7.61,59.37C692.43,103.87,694.25,104.16,696.32,104.4Z"/><path class="cls-1" d="M768.37,110.42a23.43,23.43,0,0,1-13.81-4,23.84,23.84,0,0,1-8.37-11,42.82,42.82,0,0,1-2.72-15.66,52.87,52.87,0,0,1,4.19-21.27,36.45,36.45,0,0,1,11.93-15.26,29.72,29.72,0,0,1,17.9-5.65,22.7,22.7,0,0,1,13.86,4.15,24.26,24.26,0,0,1,8.23,11.1,43.54,43.54,0,0,1,2.62,15.47,53.47,53.47,0,0,1-4.09,21.13,36.53,36.53,0,0,1-11.74,15.26A29.46,29.46,0,0,1,768.37,110.42Zm7.9-66.7a15.12,15.12,0,0,0-10.7,4.54,30.73,30.73,0,0,0-7.46,12.64,56.39,56.39,0,0,0-2.7,17.86c0,7.58,1.23,13.84,3.65,18.63s5.81,7,10.44,7a15.11,15.11,0,0,0,10.74-4.49,29.82,29.82,0,0,0,7.32-12.59,59.64,59.64,0,0,0,2.61-18.24c0-7.88-1.21-14.18-3.6-18.71S780.84,43.72,776.27,43.72Z"/><path class="cls-1" d="M791,42.21a23.6,23.6,0,0,1,8,10.85,42.87,42.87,0,0,1,2.58,15.27,52.63,52.63,0,0,1-4,20.9,35.72,35.72,0,0,1-11.55,15,28.79,28.79,0,0,1-17.67,5.59A22.78,22.78,0,0,1,754.89,106a23.2,23.2,0,0,1-8.17-10.71A42.15,42.15,0,0,1,744,79.79a52,52,0,0,1,4.14-21,35.73,35.73,0,0,1,11.74-15,29,29,0,0,1,17.57-5.55A22.09,22.09,0,0,1,791,42.21Zm-25.83,5.64a31.12,31.12,0,0,0-7.61,12.87,56.67,56.67,0,0,0-2.72,18q0,11.55,3.71,18.88T769.5,105a15.58,15.58,0,0,0,11.13-4.65,30.19,30.19,0,0,0,7.47-12.83,59.7,59.7,0,0,0,2.63-18.41q0-12-3.66-19c-2.44-4.64-6.05-7-10.8-7A15.59,15.59,0,0,0,765.18,47.85Z"/><path class="cls-1" d="M833.48,110.23c-6,0-11-1.49-14.91-4.43a25.2,25.2,0,0,1-8.5-11.48,43.16,43.16,0,0,1-2.62-15.19,46.81,46.81,0,0,1,4.85-21.72A36,36,0,0,1,825.57,42.9a35.47,35.47,0,0,1,18.71-5.1,58.56,58.56,0,0,1,8.68.52,54.05,54.05,0,0,1,5.32,1c1.28.35,2.07.55,2.36.61l2.32.72-3,18.16h-7.87l-.77-13.37a19.24,19.24,0,0,0-8.47-1.67,17.51,17.51,0,0,0-12.66,5.06,31.93,31.93,0,0,0-7.89,13A50.8,50.8,0,0,0,819.67,78c0,7.51,1.3,13.74,3.88,18.52s6.35,7,11.62,7a25.92,25.92,0,0,0,6.89-1,10.77,10.77,0,0,0,5.12-2.82,99,99,0,0,0,3.13-9.71l.12-.41h7.18L855.51,105l-.26.14A47.21,47.21,0,0,1,833.48,110.23Z"/><path class="cls-1" d="M842.87,43.25a18,18,0,0,0-13.06,5.21,32.48,32.48,0,0,0-8,13.25A51.36,51.36,0,0,0,819.1,78q0,11.46,3.95,18.79a12.91,12.91,0,0,0,12.12,7.32,26.67,26.67,0,0,0,7-1,11.19,11.19,0,0,0,5.45-3.06,97.14,97.14,0,0,0,3.2-9.86H857l-2,14.37a46.27,46.27,0,0,1-21.51,5.08q-8.84,0-14.56-4.33a24.43,24.43,0,0,1-8.32-11.22,42.52,42.52,0,0,1-2.58-15,46.08,46.08,0,0,1,4.79-21.46,35.19,35.19,0,0,1,13.06-14.28,34.76,34.76,0,0,1,18.41-5,58.76,58.76,0,0,1,8.6.52,52.74,52.74,0,0,1,5.26,1c1.28.35,2.08.55,2.39.61l1.79.57L859.5,58.28h-6.86l-.75-13.15A19.18,19.18,0,0,0,842.87,43.25Z"/><path class="cls-1" d="M883.55,110.51a51.94,51.94,0,0,1-12.21-1.42c-4-1-6.53-1.92-7.86-2.92l-.27-.2,2.29-14.25h7.12l.58,10.13a14.26,14.26,0,0,0,4.34,1.87,23.41,23.41,0,0,0,6,.77,17.06,17.06,0,0,0,10.33-3,9.67,9.67,0,0,0,4-8.33,11.16,11.16,0,0,0-2.86-7.79,42.92,42.92,0,0,0-9-7A76.4,76.4,0,0,1,878,72.57a25.65,25.65,0,0,1-5.62-6.68,17,17,0,0,1-2.29-8.74,17.59,17.59,0,0,1,3.16-10.38,20.05,20.05,0,0,1,8.6-6.81,29.73,29.73,0,0,1,11.92-2.35,44,44,0,0,1,10.8,1.14,22.91,22.91,0,0,1,6.8,2.71l.31.2-2.31,13.43h-6.53L902,45.82c-2.14-1.46-5.15-2.19-9-2.19a14.58,14.58,0,0,0-8.74,2.57,8.18,8.18,0,0,0-3.47,7.1A11.89,11.89,0,0,0,884,61.7a49.31,49.31,0,0,0,9.85,7.56,76.13,76.13,0,0,1,7.72,5.49A23.64,23.64,0,0,1,906.77,81a16.17,16.17,0,0,1,2.15,8.32,19.84,19.84,0,0,1-3.15,11,20.92,20.92,0,0,1-8.92,7.53A31.3,31.3,0,0,1,883.55,110.51Z"/><path class="cls-1" d="M893,43.06A15.07,15.07,0,0,0,884,45.74a8.77,8.77,0,0,0-3.71,7.56,12.38,12.38,0,0,0,3.29,8.78,49.45,49.45,0,0,0,10,7.66,73.17,73.17,0,0,1,7.65,5.45,22.55,22.55,0,0,1,5.12,6.06,15.54,15.54,0,0,1,2.07,8A19.25,19.25,0,0,1,905.3,100a20.37,20.37,0,0,1-8.69,7.33A30.63,30.63,0,0,1,883.55,110a50.7,50.7,0,0,1-12.07-1.41c-3.85-.94-6.41-1.88-7.66-2.82L866,92.29h6.11l.56,9.86a14.08,14.08,0,0,0,4.75,2.11,23.16,23.16,0,0,0,6.15.8,17.54,17.54,0,0,0,10.66-3.14,10.3,10.3,0,0,0,4.28-8.79,11.68,11.68,0,0,0-3-8.17,43.2,43.2,0,0,0-9.11-7,76.73,76.73,0,0,1-8-5.77,25.21,25.21,0,0,1-5.49-6.53,16.43,16.43,0,0,1-2.21-8.46,17,17,0,0,1,3.05-10,19.41,19.41,0,0,1,8.36-6.62,29,29,0,0,1,11.7-2.31,43.35,43.35,0,0,1,10.66,1.13,22.32,22.32,0,0,1,6.63,2.63l-2.17,12.59h-5.54l-.84-9Q899.14,43.05,893,43.06Z"/></g></g></svg>