<svg id="Layer_1" data-name="Layer 1" xmlns="http://www.w3.org/2000/svg" viewBox="0 0 259 79"><defs><style>.cls-1{fill:#fff;}.cls-2{fill:none;}</style></defs><path class="cls-1" d="M26.48,38.7A1.48,1.48,0,0,0,27,35.84L8.35,29a1.47,1.47,0,1,0-1,2.76L26,38.61a1.43,1.43,0,0,0,.5.09"/><path class="cls-1" d="M29.26,35.5a1.39,1.39,0,0,0,.73-.2,1.46,1.46,0,0,0,.54-2L20.53,16A1.47,1.47,0,0,0,18,17.5L28,34.77a1.48,1.48,0,0,0,1.28.73"/><path class="cls-1" d="M33.48,34.45a1.12,1.12,0,0,0,1.1-.91l1.85-9.87a1.12,1.12,0,0,0-2.2-.42l-1.85,9.88a1.11,1.11,0,0,0,.89,1.3l.21,0"/><path class="cls-1" d="M37.17,36.93a1.49,1.49,0,0,0,.93-.33L53.65,24a1.47,1.47,0,0,0-1.85-2.29L36.24,34.32a1.47,1.47,0,0,0,.93,2.61"/><path class="cls-1" d="M38.6,40.48h10a1.12,1.12,0,1,0,0-2.23h-10a1.12,1.12,0,1,0,0,2.23"/><path class="cls-1" d="M52.47,57.65a1.47,1.47,0,0,0,1-2.6L38.05,42.22a1.47,1.47,0,1,0-1.88,2.25L51.53,57.3a1.46,1.46,0,0,0,.94.35"/><path class="cls-1" d="M35.09,56.43h.19a1.14,1.14,0,0,0,.92-1.3l-1.71-9.89a1.12,1.12,0,1,0-2.2.38L34,55.5a1.12,1.12,0,0,0,1.1.93"/><path class="cls-1" d="M18.92,63.24a1.45,1.45,0,0,0,1.26-.71L30.44,45.41a1.47,1.47,0,1,0-2.53-1.51L17.66,61a1.46,1.46,0,0,0,.5,2,1.41,1.41,0,0,0,.76.21"/><path class="cls-1" d="M17.15,45.78a1.27,1.27,0,0,0,.37-.07l9.3-3.23a1.12,1.12,0,0,0-.74-2.12l-9.3,3.24a1.12,1.12,0,0,0,.37,2.18"/><path class="cls-1" d="M79.94,34.8H75.06c-.3-2.49-2.12-4-4.86-4-3.56,0-5.74,2.76-5.74,7.27s2.15,7.26,5.64,7.26c2.78,0,4.59-1.47,5-4.08h5c-.46,5.07-4.19,8-9.94,8-6.6,0-10.66-4.23-10.66-11.16S63.53,26.91,70.2,26.91c5.81,0,9.51,3.24,9.74,7.89"/><path class="cls-1" d="M87.29,35.19a6,6,0,0,1,4.62-2c3.76,0,6.17,2.1,6.17,6.25v9.36H93.46V39.82c0-2.31-1.12-3.36-2.94-3.36s-3.3,1.35-3.3,4.14v8.16H82.6V27.39h4.62v7.8Z"/><path class="cls-1" d="M114.85,39.07v5.52a14.44,14.44,0,0,0,.47,4.17h-4.16a7.73,7.73,0,0,1-.23-2h-.07a6.55,6.55,0,0,1-5.45,2.4c-3.56,0-5.71-2-5.71-4.62s1.65-4.17,6.5-4.86c1.26-.18,3.14-.36,4.2-.42v-.54a2.44,2.44,0,0,0-2.74-2.7c-1.72,0-2.71.87-2.78,2.31h-4.49c.17-2.92,2.48-5.26,7.27-5.26s7.19,2,7.19,6m-4.45,2.7c-1,.06-2.38.18-3.37.33-1.92.3-2.71.87-2.71,2.1s.86,1.92,2.48,1.92a4,4,0,0,0,2.64-.87,3.42,3.42,0,0,0,1-2.91Z"/><path class="cls-1" d="M147.58,44.14h4.72c-.66,2.79-3.57,5.1-8,5.1-5.29,0-8.36-3.36-8.36-8.22,0-4.5,3.07-8,8.32-8,3.87,0,6.7,2,7.76,5.08a11.64,11.64,0,0,1,.53,3.9H140.48c.13,3.15,1.81,4.26,3.8,4.26,1.84,0,3.07-.9,3.3-2.13m-7-4.77h7.33A3.51,3.51,0,0,0,144.24,36c-1.88,0-3.3,1.05-3.66,3.36"/><path class="cls-1" d="M170.09,39.4v9.36h-4.62V39.82c0-2.31-1.12-3.36-2.94-3.36s-3.3,1.38-3.3,4.14v8.16h-4.62V33.51h4.32v1.92H159a6.16,6.16,0,0,1,4.92-2.28c3.76,0,6.17,2.1,6.17,6.25"/><path class="cls-1" d="M184,35.55h.07v-2h4.36V47.8c0,4.62-3.14,6.78-8,6.78-4.62,0-7.16-1.86-7.43-4.86h4.63c.1,1.17,1.15,1.86,2.9,1.86,2.08,0,3.37-1,3.37-3.93V46.3h-.07a5.46,5.46,0,0,1-4.68,2.28c-4.2,0-6.87-3-6.87-7.74s2.71-7.75,6.93-7.75A5.38,5.38,0,0,1,184,35.55m-6.86,5.29c0,2.64,1.32,4.29,3.37,4.29s3.56-1.71,3.56-4.29-1.39-4.29-3.56-4.29-3.37,1.65-3.37,4.29"/><path class="cls-1" d="M202.18,44.14h4.72c-.66,2.79-3.56,5.1-8,5.1-5.28,0-8.35-3.36-8.35-8.22,0-4.5,3.07-8,8.32-8,3.86,0,6.7,2,7.76,5.08a11.64,11.64,0,0,1,.53,3.9H195.08c.14,3.15,1.82,4.26,3.8,4.26s3.07-.9,3.3-2.13m-7-4.77h7.33A3.49,3.49,0,0,0,198.85,36c-1.88,0-3.3,1.05-3.67,3.36"/><path class="cls-1" d="M124.64,46.14l.22-.08-.45,2.7-.08,0a6.69,6.69,0,0,1-2.45.43c-2.14,0-3.4-1-3.56-2.87a16.25,16.25,0,0,1,.43-3.56c.08-.44.15-.87.23-1.3l1.85-10.63c0-.26.09-.62,0-.74a.27.27,0,0,0-.21-.06h-1.69l.44-2.65h6.41l-2.26,12.92c-.09.56-.2,1.11-.29,1.64a18.72,18.72,0,0,0-.48,3.54c.05.59.33.87.85.87a2.63,2.63,0,0,0,1-.22"/><path class="cls-1" d="M133.58,46.14l.22-.08-.46,2.7-.07,0a6.69,6.69,0,0,1-2.45.43c-2.14,0-3.41-1-3.56-2.87a16.92,16.92,0,0,1,.42-3.57c.08-.43.16-.86.23-1.29l1.86-10.63a1.38,1.38,0,0,0,0-.74.27.27,0,0,0-.21-.06h-1.7l.45-2.65h6.4l-2.25,12.92c-.09.55-.2,1.11-.3,1.63a18.7,18.7,0,0,0-.47,3.55c0,.59.33.87.85.87a2.63,2.63,0,0,0,1.05-.22"/><path class="cls-1" d="M245.25,27.4l-.34,2.23h2.24c.15,0,.2,0,.22.05a.91.91,0,0,1,0,.57l-2.09,11.69c-.6,3.36-2.08,4.8-4.94,4.8-2.17,0-3.62-.48-4.44-1.47s-1.05-2.57-.64-4.77l1.79-10.2c.1-.67.23-.67.45-.67h2l.33-2.23h-8l-.37,2.23h2c.16,0,.2,0,.22.05a.91.91,0,0,1,0,.57c0,.07-1.42,7.49-1.72,9.53a15.31,15.31,0,0,0-.26,3.69h0c.35,3.67,3.28,5.69,8.24,5.69,4.55,0,6.94-2.08,7.73-6.73l2.11-12.13c.13-.67.26-.67.48-.67h2l.37-2.23Z"/><path class="cls-1" d="M229.53,32.71l.87-5.31H214.19l-.38,2.23h1.84c.15,0,.2,0,.22.05s.07.27,0,.57L213.1,45.87c-.13.68-.26.68-.47.68h-1.74l-.38,2.23h16.94l.87-5.31h-2.38l-.6,2.13c-.19.61-.47.95-1.38.95h-7.57L217.71,39h3.91a.63.63,0,0,1,.48.15,1,1,0,0,1,.08.76l-.24,1.53h2.23l1.17-6.9h-2.27L222.79,36c-.12.7-.29,1-1,1h-3.73l1.29-7.3h6.8c.93,0,1.21.2,1.25.89l-.13,2.19Z"/><polygon class="cls-1" points="62.77 56.8 62.77 58.47 65.67 58.47 65.67 59.36 62.77 59.36 62.77 61.16 65.94 61.16 65.94 62.06 61.74 62.06 61.74 55.9 65.86 55.9 65.86 56.8 62.77 56.8"/><path class="cls-1" d="M66.71,60.36V57.67h1v2.6c0,.79.34,1.1.89,1.1s1-.42,1-1.26V57.67h1v4.4h-.93v-.58h0a1.56,1.56,0,0,1-1.31.68c-1,0-1.61-.61-1.61-1.81"/><path class="cls-1" d="M74.23,57.65v.87l-.35,0c-.79,0-1.22.5-1.22,1.42v2.16h-1v-4.4h.92v.65h0a1.37,1.37,0,0,1,1.25-.71,1.5,1.5,0,0,1,.37,0"/><path class="cls-1" d="M78.66,59.87a2.18,2.18,0,1,1-2.16-2.33,2.09,2.09,0,0,1,2.16,2.33m-3.3,0c0,1,.44,1.55,1.14,1.55s1.13-.6,1.13-1.55-.43-1.55-1.13-1.55-1.14.59-1.14,1.55"/><path class="cls-1" d="M83.57,59.87c0,1.4-.71,2.3-1.83,2.3a1.47,1.47,0,0,1-1.29-.68h0v2.18h-1v-6h1v.6h0a1.48,1.48,0,0,1,1.3-.72c1.12,0,1.84.91,1.84,2.32m-3.19,0c0,1,.43,1.54,1.07,1.54s1.09-.61,1.09-1.54-.42-1.55-1.09-1.55-1.07.58-1.07,1.55"/><path class="cls-1" d="M87.28,60.74h1a1.93,1.93,0,0,1-2,1.46,2.12,2.12,0,0,1-2.13-2.39,2.08,2.08,0,0,1,2.11-2.27,1.94,1.94,0,0,1,2,1.49,3.73,3.73,0,0,1,.12,1H85.12c0,1,.54,1.41,1.15,1.41a.94.94,0,0,0,1-.73m-2.14-1.32h2.22a1.11,1.11,0,0,0-1.11-1.16c-.59,0-1,.39-1.11,1.16"/><path class="cls-1" d="M92.59,59.26V60.9a4.9,4.9,0,0,0,.11,1.17h-.89a3.18,3.18,0,0,1-.06-.62h0a1.67,1.67,0,0,1-1.48.71,1.34,1.34,0,0,1-1.49-1.31c0-.72.43-1.18,1.69-1.38.36-.06.88-.11,1.19-.13v-.18a.79.79,0,0,0-.86-.9.77.77,0,0,0-.86.77H89a1.61,1.61,0,0,1,1.83-1.49,1.58,1.58,0,0,1,1.81,1.72m-1,.72c-.3,0-.72.06-1,.11-.64.11-.87.3-.87.69s.28.65.78.65a1.13,1.13,0,0,0,.8-.29,1.18,1.18,0,0,0,.3-.94Z"/><path class="cls-1" d="M97.5,59.37v2.7h-1V59.46c0-.79-.33-1.1-.89-1.1s-1,.42-1,1.26v2.45h-1v-4.4h.93v.57h0a1.58,1.58,0,0,1,1.32-.68c1,0,1.6.61,1.6,1.81"/><path class="cls-1" d="M105.18,59.74a2.37,2.37,0,1,1-4.74,0V55.9h1v3.8c0,1,.49,1.57,1.34,1.57s1.33-.53,1.33-1.57V55.9h1Z"/><path class="cls-1" d="M110.23,59.37v2.7h-1V59.46c0-.79-.34-1.1-.89-1.1s-1,.42-1,1.26v2.45h-1v-4.4h.93v.57h0a1.56,1.56,0,0,1,1.31-.68c1,0,1.61.61,1.61,1.81"/><path class="cls-1" d="M111.27,55.9h1v.94h-1Zm0,1.77h1v4.4h-1Z"/><path class="cls-1" d="M114.2,62.07l-1.53-4.4h1l.57,1.79c.21.64.39,1.27.56,1.92h0c.17-.65.35-1.28.56-1.92l.57-1.79h1l-1.53,4.4Z"/><path class="cls-1" d="M120.22,60.74h1a1.92,1.92,0,0,1-2,1.46,2.12,2.12,0,0,1-2.13-2.39,2.08,2.08,0,0,1,2.12-2.27,1.94,1.94,0,0,1,2,1.49,3.39,3.39,0,0,1,.12,1h-3.23c0,1,.54,1.41,1.15,1.41a1,1,0,0,0,1-.73m-2.15-1.32h2.23a1.11,1.11,0,0,0-1.11-1.16c-.6,0-1,.39-1.12,1.16"/><path class="cls-1" d="M124.62,57.65v.87l-.34,0c-.79,0-1.22.5-1.22,1.42v2.16h-1v-4.4H123v.65h0a1.39,1.39,0,0,1,1.26-.71,1.47,1.47,0,0,1,.36,0"/><path class="cls-1" d="M128.37,59h-1c0-.52-.31-.77-.84-.77s-.73.19-.73.52.31.45,1,.63,1.66.4,1.66,1.44c0,.8-.71,1.35-1.84,1.35s-1.9-.53-1.91-1.58h1a.79.79,0,0,0,.91.84c.51,0,.8-.22.8-.55s-.35-.53-1.11-.72-1.5-.35-1.5-1.34c0-.78.69-1.31,1.72-1.31s1.77.52,1.78,1.49"/><path class="cls-1" d="M129.31,55.9h1v.94h-1Zm0,1.77h1v4.4h-1Z"/><path class="cls-1" d="M133.45,61.27V62a2.27,2.27,0,0,1-.55.08c-.93,0-1.33-.39-1.33-1.35V58.42h-.74v-.75h.74v-1.1h1v1.1h.86v.75h-.86v2.2c0,.49.17.69.6.69a1.14,1.14,0,0,0,.3,0"/><path class="cls-1" d="M136.23,62.26c-.42,1.11-.91,1.45-1.93,1.45a2.18,2.18,0,0,1-.49-.06v-.81a1.27,1.27,0,0,0,.41.06c.54,0,.78-.19,1-.8l-1.61-4.43h1.06l1.1,3.27h0l1.13-3.27h1Z"/><path class="cls-1" d="M141.21,60.39l-.57,1.68h-1.09l2.24-6.17h1.4l2.24,6.17h-1.09l-.57-1.68ZM143.29,59c-.28-.82-.55-1.63-.8-2.45h0c-.26.82-.51,1.63-.79,2.45l-.17.48h1.93Z"/><rect class="cls-1" x="145.92" y="55.9" width="0.99" height="6.16"/><rect class="cls-1" x="148" y="55.9" width="0.99" height="6.16"/><path class="cls-1" d="M150.08,55.9h1v.94h-1Zm0,1.77h1v4.4h-1Z"/><path class="cls-1" d="M155.61,59.26V60.9a4.9,4.9,0,0,0,.11,1.17h-.89a3.18,3.18,0,0,1-.06-.62h0a1.67,1.67,0,0,1-1.48.71,1.33,1.33,0,0,1-1.49-1.31c0-.72.43-1.18,1.69-1.38.36-.06.88-.11,1.19-.13v-.18a.79.79,0,0,0-.86-.9.78.78,0,0,0-.87.77h-1a1.61,1.61,0,0,1,1.84-1.49,1.58,1.58,0,0,1,1.81,1.72m-1,.72c-.3,0-.72.06-1,.11-.63.11-.86.3-.86.69s.27.65.78.65a1.1,1.1,0,0,0,.79-.29,1.15,1.15,0,0,0,.31-.94Z"/><path class="cls-1" d="M160.52,59.37v2.7h-1V59.46c0-.79-.34-1.1-.89-1.1s-1,.42-1,1.26v2.45h-1v-4.4h.93v.57h0a1.58,1.58,0,0,1,1.32-.68c1,0,1.6.61,1.6,1.81"/><path class="cls-1" d="M165.38,59.26h-1a.93.93,0,0,0-.95-.94c-.69,0-1.1.58-1.1,1.55s.41,1.55,1.1,1.55a1,1,0,0,0,.94-1h1a1.88,1.88,0,0,1-2,1.81,2.34,2.34,0,0,1,0-4.66,1.86,1.86,0,0,1,2,1.72"/><path class="cls-1" d="M169,60.74h1a1.91,1.91,0,0,1-2,1.46,2.11,2.11,0,0,1-2.13-2.39A2.07,2.07,0,0,1,168,57.54,1.94,1.94,0,0,1,170,59a3.39,3.39,0,0,1,.12,1h-3.23c0,1,.54,1.41,1.16,1.41a1,1,0,0,0,1-.73m-2.15-1.32h2.23A1.11,1.11,0,0,0,168,58.26c-.6,0-1,.39-1.12,1.16"/><rect class="cls-2" x="-0.5" y="-0.5" width="260" height="80"/></svg>